<svg style="position:absolute;width:0;height:0" width="0" height="0" xmlns="http://www.w3.org/2000/svg"><defs><symbol id="uni306E" viewBox="0 -212 1024 1024"><path d="M812-108.14q-16 0-61-35-25-19-51-33-24-13-51-21-55-12-84-3t-43 38q-15 25-70 34-29 4-62 17-30 12-67 35-69 43-124 112-57 66-95 147-36 77-55 126t-25 92q-6 43 2 83 7 41 21 70 15 31 65 90t99 88q49 23 124 41 77 20 122 8 42-14 93-58 52-49 95-129 43-75 66-169 23-93 34-265 12-178 18-189 6-4 20-1 11 3 29 14 14 12 26 31 14 19 23 42 20 59 32 175 11 118 0 210-13 82-24 141-12 57-29 97-8 17-14 29-8 9-14 14-16 5-16 16 5 13 50 39 46 24 70 26 54-2 111-57t104-149q46-95 35-215-12-120-72-240-43-76-138-161-93-84-144-90zm-366 765q-40 31-80 44-40 16-66-4-20-19-32-88-14-66-8-159 8-141 56-241 47-97 139-152l47-29 2 140q3 129-3 262-6 134-16 168-4 11-13 27-9 15-26 32z"/></symbol><symbol id="uni304F" viewBox="0 -212 1024 1024"><path d="M585 717.91q118 56 79 80-39 25-219-54-146-58-278-171-131-111-151-185v-70q42-104 140-231 98-128 213-245 15-10 55-38 39-27 139 38 47 33 45 48-1 14-23 45l-261 311q-20 37-45 72-25 36-27 70 12 110 132 194t201 136z"/></symbol><symbol id="uniE001" viewBox="0 -212 1024 1024"><path d="M799-80.03q0-64-19-90-20-25-55-32-35-6-55 10t-20 67q0 26-1 45-1 17-4 27-2 22-11 29-11 9-34 9-26 1-25 10 1 10 31 18 27 4 36 15 10 12 17 47 9 32 21 48 11 15 50 31 39 17 58 6 21-12 21-58 0-44 8-52 13-7 62-13 50-7 78-4 12 1 20 9 6 8 11 22 4 15 16 24 11 11 33 18 42 14 63 5 20-12 20-57 0-6 2-11 3-5 10-8 11-2 64-2 26 0 39-5 13-2 11-9-2-13-30-25-27-10-55-12-22 0-25-12-2-10-4-65v-75l-46-14q-44-16-62-5-18 13-26 63v17q-6 66-20 80-15 14-71 13H799v-64zm-412-75q-29 12-50 75-22 61-33 70-12 11-54-22-42-31-90-51-48-22-57-13-1 1 2 3 1 4 6 6 8 10 24 24 16 13 36 26 125 92 90 92-10 0-11 5-1 6 1 16 5 11-2 27-8 16-26 38-43 46-95 80-50 36-80 37-14 0-21 3-6 4-7 10 0 23 32 42 33 18 60 16 22-2 102-42 80-38 84-30 10 17 14 49 5 30 0 50-16 28-88 85-74 54-125 75-46 12-45 21 0 6 37 17 40 12 89 1 49-12 77-34 13-13 24-19 11-7 18-8 10-2 15-2 6-1 10-1 5 11 5 95-1 85-8 115-6 18-38 14h-14q-18 0-19 8-1 10 14 29 32 40 82 48 49 11 85-11 33-19 48-44 14-26 20-62 4-18 5-48 1-28 1-69 0-81-20-186-21-103-55-188-9-25-4-44 4-20 32-68 15-25 25-46 8-20 12-36 8-35 0-82-7-48-41-69-28-17-34-17-9 0-33 15zm687 854q2 16 38 21 38 8 68-2 26-15 49-96 21-83 22-179 0-91-14-138-16-47-50-64-72-39-178-53-105-15-210 0l-189 32q-10 1-22 9l-16 7q-3 9-12 21-5 12-8 21t-4 35v112q-2 92 4 125 5 37 28 88 22 49 52 65 43 11 164 15 119 2 145-3 12-8 44-14 30-7 58-7 14 0 21 2 9 1 10 3zm-112-354q4-34 4-53 0-23-3-31-1-11-8-19-8-8-19-12-2-4 60-9 61-6 72 11 8 19 1 103l-10 90H956l6-80zm-209-80q0-12 24-19 22-7 72-12h33l-14 129q-1 42-12 55-12 14-60 13h-78l7-72q4-34 8-54t10-21q10-2 10-19zm85 395q-2 2-9 4-9 2-21 6-28 8-39 0-10-8-23-50-6-22-11-46t-8-51l-9-49h139l-19 186zm214-122q1 55-15 81-17 24-55 31-36 6-42 3-8-4 1-29 4-10 5-33 1-22 1-54v-63h105v64z"/></symbol><symbol id="uni767D" viewBox="0 -212 1024 1024"><path d="M301-204q48 10 100 19 53 10 106 23 7 1 13 12 4 12 2 22Q504-38 413 1q-90 36-172-14-4-4-5-7-2-2 1 2 17-46 32-91 14-45 32-95zM16 88q48-3 101-8 52-6 106-6 137 2 277 5 139 2 277 6 22 0 46 3 22 4 44 7 25 2 31 18 5 15 2 36-8 93-16 183-7 93-17 184-4 43-12 83-7 43-13 85-8 60-41 88-34 29-93 31-103 1-204 1-101-1-200-1H16V88zm181 302q72 7 138 14 67 5 132 9 47 2 94 3 47 2 94 3 24 0 39-11 14-11 15-38 2-109 10-215 0-23-10-31-10-10-33-10-35 0-71 2-34 0-71-7-87-11-171-4-86 8-166 19v266zm229 383q105 0 210-1 8 0 18-6t11-13q8-72 17-147 8-73 17-155-126 7-250-10-123-15-249 4 2 79 8 160 4 80 8 168h210z"/></symbol><symbol id="uni3055" viewBox="0 -212 1024 1024"><path d="M442 191.15q22 43 25 46 3 4 58 109l16 44q-23-8-53-12-30-5-67-9-64-8-91-3-26 4-65 28-41 23-65 45-26 22-58 71-33 48-28 88 4 40 46 75 70 61 169 95 100 34 232 36 117 1 148-19 33-18 30-29-3-9-33-25-28-14-40-14-12 1-31 14-11 6-23 11-11 4-25 7-34 10-127-13-94-24-156-119-25-65 32-133 58-67 189-55l96 22q17 4 38-12 21-15-24-101l-56-142q-2-5 0-9 1-5 8-6 94-8 129-12 35-3 54-8 27-6 49-16 24-10 44-24 40-29 42-56 3-25-34-57-37-31-58-25-19 8-49 58-13 26-48 40-35 16-139 21-28 3-40-6-10-9-10-41-2-26-15-94-14-67-26-86-26-24-83-50-55-27-76-29-8-1-12 3-5 5-8 12-6 12 5 53 26 75 57 159 31 86 31 97-16 3-99 4-82 2-148 2-26 4-66 6-19 1-32 1-14 0-18 2-21 7 6 25 28 19 59 27 28 4 105 4h235z"/></symbol><symbol id="uni3089" viewBox="0 -212 1024 1024"><path d="M747-133.92q-18-24-42-41-23-17-58-26-15-6-29 1-15 8-35 28-84 91-75 146 9 56 110 58h38q6-5 12-8 6-1 12-6 5 0 8-1 3 0 6-7 4-3 11-9 4-7 15-16 17-21 29-49 11-26 11-38 0-6-2-14-3-9-11-18zm-521 166q-6-29-14-67-7-38-23-57-34-30-82-12-50 19-68 38-23 46-12 174 10 129 39 192 14 29 56 48t93 19q26 0 54-6 30-6 62-12 207-9 252 128 44 135-98 157l-91 8q-84 7-125 23-40 16-29 74 3 26 12 37 9 10 37 20 42 10 99 7t128-15q38-9 67-18 29-11 50-22 49-23 95-74t62-98q10-49-6-119-18-68-70-117-57-43-141-64-83-20-168-20-40 0-69 1-29 3-46 8-15 6-24 8-9 1-14-3-6-8-6-116l-20-122z"/></symbol><symbol id="uni8358" viewBox="0 -212 1024 1024"><path d="M676 50.16q13-14 20-33t23-51H463q0 17 4 43 2 26 18 41 0 16-4 21-2 2-18 2-61 18-87 7-25-9-40-71 0-17-12-29-15-13-30-14H145q-2 0-10-3-10-3-11-18 48-15 96-18t95-3v-65q-18-31-10-47 7-16 53-16 46-1 58 8 14 10 26 55 1 32 14 49 12 16 29 16h211q17 2 31-5 12-7 12-37 13-63 43-80 29-17 105 15-1 30-9 53-10 24-11 54 32 17 63 13 32-4 64-35 18-15 56-18 38-2 71-2 3 0 12 12 9 14 10 30 1 31-6 36-7 7-37 6-96 33-190 0-32 1-48 14-17 12-17 29-15 32-32 45-14 12-31-4H676zm-361 65q31 15 64 31 32 17 63 33 17 0 30 12t13 29v383q0 31 2 63 4 33 19 65 0 29-16 38-16 10-48 25-17 1-44 9-29 4-62-9v-21q-3-159-12-309-11-149-9-307v-42zm298 276H506v-22q48 0 96-3t94-18v-148q-2-62 11-74 13-15 75-11h22q61 13 73 30 14 16 10 75 3 17 12 45 10 30 11 62v21q17 2 43-5 24-7 41-37 6-16 56-16t71 16q15 18 6 39-9 23-27 24H973q-16 15-28 19l-15 3v191q-12 59-26 76-13 17-59 30-62 2-84-11-23-12-22-74-15-46-18-98-2-51-2-114H613zm-319-22q-49 30-93 22-44-10-77-43-16-31-28-51-13-19-15-34l-2-13q-4-13-18-30h63q64 17 102 51 37 36 68 98zm-22 148q11 49-28 83-40 34-78 66-21 15-74 5-54-9-74-26 22-66 103-103 81-38 151-25zm701 214q17-48 58-65 41-15 90 0 3 3 9 21 6 19-9 21-15 17-31 30t-32 13q-111 16-222 18-112 4-223 4h-65v-22q110-1 213-10 102-9 212-10z"/></symbol></defs></svg>